<?xml version="1.0" encoding="UTF-8" standalone="no"?>
<svg
   xmlns:dc="http://purl.org/dc/elements/1.1/"
   xmlns:cc="http://creativecommons.org/ns#"
   xmlns:rdf="http://www.w3.org/1999/02/22-rdf-syntax-ns#"
   xmlns:svg="http://www.w3.org/2000/svg"
   xmlns="http://www.w3.org/2000/svg"
   xmlns:sodipodi="http://sodipodi.sourceforge.net/DTD/sodipodi-0.dtd"
   xmlns:inkscape="http://www.inkscape.org/namespaces/inkscape"
   version="1"
   viewBox="0 0 100 77.478"
   id="svg30"
   sodipodi:docname="symbol escalator.svg"
   inkscape:version="0.92.5 (2060ec1f9f, 2020-04-08)">
  <metadata
     id="metadata36">
    <rdf:RDF>
      <cc:Work
         rdf:about="">
        <dc:format>image/svg+xml</dc:format>
        <dc:type
           rdf:resource="http://purl.org/dc/dcmitype/StillImage" />
      </cc:Work>
    </rdf:RDF>
  </metadata>
  <defs
     id="defs34">
    <filter
       style="color-interpolation-filters:sRGB;"
       inkscape:label="Invert"
       id="filter6230">
      <feColorMatrix
         type="hueRotate"
         values="180"
         result="color1"
         id="feColorMatrix6226" />
      <feColorMatrix
         values="-1 0 0 0 1 0 -1 0 0 1 0 0 -1 0 1 -0.21 -0.72 -0.07 2 0 "
         result="color2"
         id="feColorMatrix6228" />
    </filter>
    <filter
       style="color-interpolation-filters:sRGB;"
       inkscape:label="Invert"
       id="filter6236">
      <feColorMatrix
         type="hueRotate"
         values="180"
         result="color1"
         id="feColorMatrix6232" />
      <feColorMatrix
         values="-1 0 0 0 1 0 -1 0 0 1 0 0 -1 0 1 -0.21 -0.72 -0.07 2 0 "
         result="color2"
         id="feColorMatrix6234" />
    </filter>
  </defs>
  <sodipodi:namedview
     pagecolor="#ffffff"
     bordercolor="#666666"
     borderopacity="1"
     objecttolerance="10"
     gridtolerance="10"
     guidetolerance="10"
     inkscape:pageopacity="0"
     inkscape:pageshadow="2"
     inkscape:window-width="2560"
     inkscape:window-height="1403"
     id="namedview32"
     showgrid="false"
     inkscape:zoom="3.0460261"
     inkscape:cx="50"
     inkscape:cy="38.738998"
     inkscape:window-x="0"
     inkscape:window-y="0"
     inkscape:window-maximized="1"
     inkscape:current-layer="svg30" />
  <path
     d="M42.327 13.28c3.663-.014 6.63-2.98 6.617-6.616A6.635 6.635 0 0 0 42.327 0a6.644 6.644 0 0 0-6.616 6.664c0 3.636 2.97 6.602 6.62 6.616z"
     id="path26"
     style="filter:url(#filter6230)" />
  <path
     d="M88.27 7.226H72.875c-3.184-.022-7.28 1.28-9.714 3.707L48.9 25.2v-4.177c-.006-8.9-13.125-8.803-13.14 0v17.034h.047l-12.39 12.388c-1.18 1.17-1.323 1.22-3.61 1.22-.01.003-7.603 0-7.603 0C4.592 51.665.02 58.52 0 64.335c.02 5.803 4.592 13.146 12.905 13.14 0 0 10.302.007 13.467 0 3.208.007 7.07-1.212 10.278-4.224l39.51-39.37c.832-.77 1.302-1 2.77-.98 0 0 5.432-.012 9.76 0 4.682-.012 11.33-5.34 11.31-12.993.02-7.612-6.677-12.676-11.73-12.67zm-.66 19.006h-8.35c-3.535-.003-5.1.492-7.135 2.533L32.285 68.56c-1.59 1.634-3.634 2.273-6.24 2.25h-13.14c-3.385.023-6.357-2.83-6.335-6.568-.022-3.76 2.813-5.858 5.726-5.867h9.01c2.645.01 4.37-.74 5.864-2.25l40.5-40.5c1.67-1.654 3.313-1.86 6.145-1.875h13.843c3.396.014 5.665 3.784 5.68 6.054-.016 2.226-1.626 6.425-5.728 6.428z"
     id="path28"
     style="filter:url(#filter6236)" />
</svg>
